<svg width="16" height="16" viewBox="0 0 16 16" fill="none" xmlns="http://www.w3.org/2000/svg">
<path d="M5.61137 6.66668L8.00192 9.05721L10.3925 6.66668C10.6528 6.40636 11.0749 6.40636 11.3353 6.66668C11.3678 6.69928 11.3963 6.73434 11.4207 6.77128C11.5915 7.03008 11.5631 7.38174 11.3353 7.60954L8.47332 10.4715C8.34826 10.5965 8.17872 10.6667 8.00192 10.6667C7.82506 10.6667 7.65552 10.5965 7.53052 10.4715L4.66856 7.60954C4.40821 7.34914 4.40821 6.92708 4.66856 6.66668C4.7011 6.63416 4.73618 6.60569 4.77314 6.58128C5.03191 6.41043 5.38356 6.4389 5.61137 6.66668Z" fill="currentColor"/>
</svg>
