<svg width="13" height="15" viewBox="0 0 13 15" fill="none" xmlns="http://www.w3.org/2000/svg">
<path d="M7.47118 2.81457C8.25225 2.03352 9.51859 2.03352 10.2997 2.81457C11.0807 3.59561 11.0807 4.86195 10.2997 5.64299L5.58558 10.357C5.32523 10.6174 4.90312 10.6174 4.64278 10.357C4.38242 10.0967 4.38242 9.67455 4.64278 9.41422L8.88545 5.17159C9.14579 4.91124 9.14579 4.48913 8.88545 4.22878C8.62505 3.96843 8.20298 3.96843 7.94258 4.22878L3.69996 8.47142C2.91892 9.25249 2.91892 10.5188 3.69996 11.2998C4.48101 12.0809 5.74732 12.0809 6.52838 11.2998L11.2425 6.5858C12.5442 5.28405 12.5442 3.17351 11.2425 1.87176C9.94072 0.570009 7.83012 0.570009 6.52838 1.87176L1.81434 6.5858C-0.00810194 8.40822 -0.00810194 11.363 1.81434 13.1855C3.63679 15.0079 6.59159 15.0079 8.41399 13.1855L12.6567 8.94282C12.917 8.68249 12.917 8.26035 12.6567 8.00002C12.3963 7.73969 11.9742 7.73969 11.7139 8.00002L7.47118 12.2427C6.16945 13.5444 4.0589 13.5444 2.75716 12.2427C1.4554 10.9409 1.4554 8.83035 2.75716 7.52862L7.47118 2.81457Z" fill="currentColor"/>
</svg>
