<svg width="16" height="16" viewBox="0 0 16 16" fill="none" xmlns="http://www.w3.org/2000/svg">
<path d="M10.394 6.66686L8.67017 8.39066V2.00016C8.67017 1.97715 8.66897 1.95441 8.6667 1.932C8.63257 1.59583 8.34863 1.3335 8.0035 1.3335C7.6353 1.3335 7.33683 1.63198 7.33683 2.00016V8.39066L5.61295 6.66679C5.3526 6.40646 4.93049 6.40646 4.67014 6.66679C4.40979 6.92719 4.40979 7.34926 4.67014 7.60966L7.5321 10.4716C7.6571 10.5966 7.8267 10.6669 8.0035 10.6669C8.1803 10.6669 8.34983 10.5966 8.4749 10.4716L11.3368 7.60966C11.3694 7.57712 11.3978 7.54206 11.4222 7.50506C11.5931 7.24632 11.5646 6.89466 11.3368 6.66686C11.0764 6.40649 10.6544 6.40649 10.394 6.66686Z" fill="currentColor"/>
<path d="M2.67008 9.33354C3.03828 9.33354 3.33675 9.632 3.33675 10.0002V12.6669H12.6701V10.0002C12.6701 9.632 12.9686 9.33354 13.3368 9.33354C13.705 9.33354 14.0034 9.632 14.0034 10.0002V12.6669C14.0034 13.4033 13.4065 14.0002 12.6701 14.0002H3.33675C2.60037 14.0002 2.00342 13.4033 2.00342 12.6669V10.0002C2.00342 9.632 2.3019 9.33354 2.67008 9.33354Z" fill="currentColor"/>
</svg>
