<svg width="30" height="31" viewBox="0 0 30 31" fill="none" xmlns="http://www.w3.org/2000/svg">
<path d="M9.8584 2.75977C3.03465 2.75977 2.5 3.29379 2.5 10.1182V20.4014C2.5 27.2251 3.03465 27.7598 9.8584 27.7598H20.1416C26.9654 27.7598 27.5 27.2257 27.5 20.4014V10.1182C27.5 3.29379 26.966 2.75977 20.1416 2.75977H9.8584ZM8.22998 5.25977H21.77C24.7656 5.25977 25 5.49412 25 8.48975V22.0298C25 25.0254 24.765 25.2598 21.77 25.2598H19.1357V17.7842H22.0959L22.5623 14.4578H19.1357C19.1357 14.4578 19.1307 12.5093 19.1357 12.0237C19.1457 11.0731 19.9401 10.5922 20.6226 10.5991C21.3051 10.6066 22.7185 10.6016 22.7185 10.6016V7.53516C22.7185 7.53516 21.4949 7.37616 20.2112 7.36304C19.1324 7.35179 17.9412 7.64429 16.98 8.61304C16.0019 9.59804 15.8476 11.0655 15.8289 12.8586C15.8232 13.3768 15.8289 14.4565 15.8289 14.4565H12.9321V17.783H15.8289V25.2598H8.22998C5.23436 25.2598 5 25.0248 5 22.0298V8.48975C5 5.49412 5.23436 5.25977 8.22998 5.25977Z" fill="currentColor"/>
</svg>
