<svg width="16" height="16" viewBox="0 0 16 16" fill="none" xmlns="http://www.w3.org/2000/svg">
<path fill-rule="evenodd" clip-rule="evenodd" d="M7.99863 2C7.63043 2 7.33196 2.29848 7.33196 2.66667V4.11381C6.5552 4.38839 5.9987 5.1292 5.9987 5.99999C5.9987 6.8708 6.5552 7.6116 7.33196 7.88613V13.3333C7.33196 13.7015 7.63043 14 7.99863 14C8.36683 14 8.6653 13.7015 8.6653 13.3333V7.8862C9.4421 7.61167 9.9987 6.8708 9.9987 5.99999C9.9987 5.12915 9.4421 4.38831 8.6653 4.11377V2.66667C8.6653 2.29848 8.36683 2 7.99863 2ZM7.9987 5.33332C7.6305 5.33332 7.33203 5.6318 7.33203 5.99999C7.33203 6.36818 7.6305 6.66665 7.9987 6.66665C8.3669 6.66665 8.66536 6.36818 8.66536 5.99999C8.66536 5.6318 8.3669 5.33332 7.9987 5.33332Z" fill="currentColor"/>
<path fill-rule="evenodd" clip-rule="evenodd" d="M11.9986 13.3333C11.9986 13.7015 12.2971 14 12.6653 14C13.0335 14 13.332 13.7015 13.332 13.3333V11.8862C14.1088 11.6117 14.6654 10.8708 14.6654 10C14.6654 9.12913 14.1088 8.38833 13.332 8.1138V2.66667C13.332 2.29848 13.0335 2 12.6653 2C12.2971 2 11.9986 2.29848 11.9986 2.66667V8.1138C11.2219 8.3884 10.6654 9.1292 10.6654 10C10.6654 10.8708 11.2219 11.6116 11.9986 11.8861V13.3333ZM12.6654 9.33333C12.2972 9.33333 11.9987 9.6318 11.9987 10C11.9987 10.3682 12.2972 10.6667 12.6654 10.6667C13.0336 10.6667 13.332 10.3682 13.332 10C13.332 9.6318 13.0336 9.33333 12.6654 9.33333Z" fill="currentColor"/>
<path fill-rule="evenodd" clip-rule="evenodd" d="M2.6653 13.3333C2.6653 13.7015 2.96378 14 3.33196 14C3.70016 14 3.99863 13.7015 3.99863 13.3333V11.8862C4.77546 11.6117 5.33203 10.8708 5.33203 10C5.33203 9.12913 4.77546 8.38833 3.99863 8.1138V2.66667C3.99863 2.29848 3.70016 2 3.33196 2C2.96378 2 2.6653 2.29848 2.6653 2.66667V8.1138C1.88854 8.3884 1.33203 9.1292 1.33203 10C1.33203 10.8708 1.88854 11.6116 2.6653 11.8861V13.3333ZM3.33203 9.33333C2.96384 9.33333 2.66536 9.6318 2.66536 10C2.66536 10.3682 2.96384 10.6667 3.33203 10.6667C3.70022 10.6667 3.9987 10.3682 3.9987 10C3.9987 9.6318 3.70022 9.33333 3.33203 9.33333Z" fill="currentColor"/>
</svg>
