<svg width="30" height="31" viewBox="0 0 30 31" fill="none" xmlns="http://www.w3.org/2000/svg">
<path d="M14.8877 2.75977C3.39957 2.75977 2.5 3.65934 2.5 15.1475V15.3721C2.5 26.8602 3.39957 27.7598 14.8877 27.7598H15.1123C26.6004 27.7598 27.5 26.8602 27.5 15.3721V15.2598C27.5 3.66727 26.5925 2.75977 15 2.75977H14.8877ZM12.5 5.25977H17.5C24.4556 5.25977 25 5.80414 25 12.7598V17.7598C25 24.7154 24.4556 25.2598 17.5 25.2598H12.5C5.54438 25.2598 5 24.7154 5 17.7598V12.7598C5 5.80414 5.54438 5.25977 12.5 5.25977ZM21.2463 7.75977C20.5557 7.76164 19.9981 8.3228 20 9.01343C20.0019 9.70405 20.563 10.2616 21.2537 10.2598C21.9443 10.2579 22.5019 9.69673 22.5 9.0061C22.4981 8.31548 21.937 7.75789 21.2463 7.75977ZM14.9854 9.00977C11.5341 9.01789 8.74188 11.8232 8.75 15.2744C8.75812 18.7257 11.5634 21.5179 15.0146 21.5098C18.4659 21.5016 21.2581 18.6964 21.25 15.2451C21.2419 11.7939 18.4366 9.00164 14.9854 9.00977ZM14.9915 11.5098C17.0621 11.5048 18.745 13.1806 18.75 15.2512C18.7544 17.3218 17.0792 19.0048 15.0085 19.0098C12.9379 19.0148 11.255 17.3396 11.25 15.2683C11.245 13.1977 12.9208 11.5148 14.9915 11.5098Z" fill="currentColor"/>
</svg>
