<svg width="30" height="31" viewBox="0 0 30 31" fill="none" xmlns="http://www.w3.org/2000/svg">
<path d="M9.8584 2.75977C3.03465 2.75977 2.5 3.29379 2.5 10.1182V20.4014C2.5 27.2251 3.03465 27.7598 9.8584 27.7598H20.1416C26.9654 27.7598 27.5 27.2257 27.5 20.4014V10.1182C27.5 3.29379 26.966 2.75977 20.1416 2.75977H9.8584ZM8.22998 5.25977H21.77C24.7656 5.25977 25 5.49412 25 8.48975V22.0298C25 25.0254 24.765 25.2598 21.77 25.2598H8.22998C5.23436 25.2598 5 25.0248 5 22.0298V8.48975C5 5.49412 5.23436 5.25977 8.22998 5.25977ZM9.06372 6.82471C8.0456 6.82471 7.22046 7.64987 7.22046 8.66675C7.22046 9.68362 8.04497 10.51 9.06372 10.51C10.0793 10.51 10.9045 9.68425 10.9045 8.66675C10.9045 7.65112 10.0793 6.82471 9.06372 6.82471ZM18.7085 11.7112C17.171 11.7112 16.1396 12.5549 15.7178 13.3542H15.6738V11.9651H12.6428V22.1348H15.8008V17.103C15.8008 15.7762 16.0546 14.4919 17.699 14.4919C19.3202 14.4919 19.3408 16.0103 19.3408 17.1897V22.1348H22.5V16.5562C22.5 13.8174 21.9091 11.7112 18.7085 11.7112ZM7.48291 11.9651V22.1348H10.6433V11.9651H7.48291Z" fill="currentColor"/>
</svg>
