<svg width="840" height="70" viewBox="0 0 840 70" fill="none" xmlns="http://www.w3.org/2000/svg">
<g clip-path="url(#clip0_470_687)">
<path d="M52.9533 28.8112C54.2419 26.192 54.8862 23.6028 54.8862 21.0285C54.8862 15.356 53.3279 10.6115 50.2262 6.79498C47.1095 2.97843 42.2397 1.07764 35.5719 1.07764H0V68.9523H34.8976C41.7303 68.9523 46.7799 67.0067 50.0164 63.1003C53.2529 59.194 54.8862 54.4944 54.8862 49.0015C54.8862 46.2476 54.2419 43.6135 52.9533 41.0841C51.6646 38.5547 49.8666 36.5341 47.559 35.0225C49.8666 33.5108 51.6646 31.4454 52.9533 28.8412V28.8112ZM44.5623 57.817C42.6443 60.2566 39.4377 61.4839 34.8976 61.4839H7.46201V38.7343H38.1042C41.3857 38.7343 43.7681 39.8418 45.2365 42.0569C46.705 44.272 47.4392 46.5769 47.4392 48.9716C47.4392 52.4289 46.4802 55.3774 44.5772 57.817H44.5623ZM45.2965 27.8833C43.873 30.1433 41.5655 31.2808 38.3739 31.2808H13.7403C10.264 31.2808 7.46201 28.467 7.46201 25.0096V8.51617H35.5719C39.8423 8.51617 42.8691 9.74345 44.6971 12.183C46.5102 14.6226 47.4242 17.5711 47.4242 21.0285C47.4242 23.3334 46.705 25.6233 45.2965 27.8833Z" fill="#091930"/>
<path d="M120.561 34.9926C123.663 30.9965 125.221 26.3418 125.221 21.0136C125.221 15.3411 123.663 10.5966 120.561 6.78008C117.444 2.96354 112.574 1.06274 105.907 1.06274H70.3347V68.9375H77.7967V47.2654C77.7967 43.7931 80.6136 40.9943 84.0749 40.9943H101.157L116.83 68.9375H125.221L109.428 40.7848C114.313 40.1861 118.029 38.2554 120.546 35.0076L120.561 34.9926ZM114.912 29.8739C112.994 32.3135 109.997 33.5408 105.922 33.5408H77.8116V8.51624H105.922C110.267 8.51624 113.339 9.75849 115.107 12.243C116.875 14.7275 117.774 17.661 117.774 21.0285C117.774 24.3961 116.815 27.4344 114.912 29.8739Z" fill="#091930"/>
<path d="M150.409 1.06274H142.947V68.9375H150.409V1.06274Z" fill="#091930"/>
<path d="M222.482 68.9374H229.944V35.0076H202.238V42.4611H219.125C221.028 42.4611 222.512 44.0925 222.332 45.9932C222.062 48.9866 221.448 51.5609 220.489 53.7012C219.155 56.6796 216.818 58.8947 213.491 60.3614C210.165 61.8282 205.52 62.5616 199.571 62.5616C194.507 62.5616 190.206 61.454 186.655 59.2389C183.104 57.0238 180.392 53.9556 178.534 50.0642C176.676 46.1579 175.687 41.6828 175.597 36.624V33.5708C175.597 28.6018 176.556 24.1416 178.459 20.1904C180.362 16.2391 183.119 13.141 186.715 10.881C190.311 8.62101 194.597 7.48352 199.571 7.48352C204.546 7.48352 208.607 8.41147 212.023 10.2823C215.439 12.1382 218.031 14.6526 219.814 17.7957C221.598 20.9387 222.482 24.5158 222.482 28.512V29.0508H229.944V28.1228C229.944 22.7198 228.655 17.9005 226.078 13.6798C223.501 9.47412 219.919 6.13651 215.349 3.69691C210.779 1.25731 205.505 0.0300293 199.556 0.0300293C193.608 0.0300293 188.258 1.42195 183.508 4.22075C178.758 7.01955 174.998 10.8511 172.255 15.7303C169.498 20.6095 168.12 26.1921 168.12 32.4931V37.956C168.12 44.3469 169.498 49.9295 172.255 54.7189C175.012 59.5083 178.758 63.265 183.508 65.959C188.258 68.668 193.608 70.0151 199.556 70.0151C205.505 70.0151 209.97 68.8027 213.746 66.3482C215.634 65.1209 217.462 63.699 218.99 62.0527C220.264 60.7057 222.527 61.5737 222.512 63.4296L222.467 68.9374H222.482Z" fill="#091930"/>
<path d="M291.603 31.2659H252.854V1.06274H245.392V68.9375H252.854V45.0054C252.854 41.5331 255.671 38.7343 259.132 38.7343H297.881V68.9375H305.343V1.06274H297.881V24.9948C297.881 28.4671 295.064 31.2659 291.603 31.2659Z" fill="#091930"/>
<path d="M317.735 8.51624H341.979V68.9375H349.441V8.51624H373.7V1.06274H317.735V8.51624Z" fill="#091930"/>
<path d="M520.992 28.8112C522.28 26.192 522.925 23.6028 522.925 21.0285C522.925 15.356 521.366 10.6115 518.265 6.79498C515.148 2.97843 510.278 1.07764 503.61 1.07764H468.039V68.9523H502.936C509.769 68.9523 514.818 67.0067 518.055 63.1003C521.291 59.194 522.925 54.4944 522.925 49.0015C522.925 46.2476 522.28 43.6135 520.992 41.0841C519.703 38.5547 517.905 36.5341 515.598 35.0225C517.905 33.5108 519.703 31.4454 520.992 28.8412V28.8112ZM512.601 57.817C510.683 60.2566 507.476 61.4839 502.936 61.4839H481.779C478.303 61.4839 475.501 58.6701 475.501 55.2128V38.7343H506.143C509.424 38.7343 511.807 39.8418 513.275 42.0569C514.743 44.272 515.478 46.5769 515.478 48.9716C515.478 52.4289 514.519 55.3774 512.616 57.817H512.601ZM513.335 27.8833C511.912 30.1433 509.604 31.2808 506.412 31.2808H475.501V8.51617H503.61C507.881 8.51617 510.908 9.74345 512.736 12.183C514.549 14.6226 515.463 17.5711 515.463 21.0285C515.463 23.3334 514.743 25.6233 513.335 27.8833Z" fill="#091930"/>
<path d="M588.614 34.9926C591.716 30.9965 593.274 26.3418 593.274 21.0136C593.274 15.3411 591.716 10.5966 588.614 6.78008C585.498 2.96354 580.628 1.06274 573.96 1.06274H538.388V68.9375H545.85V47.2654C545.85 43.7931 548.667 40.9943 552.128 40.9943H569.21L584.883 68.9375H593.274L577.481 40.7848C577.481 40.7848 577.571 40.7848 577.631 40.7698C582.441 40.1412 586.097 38.2255 588.614 35.0076V34.9926ZM582.95 29.8739C581.032 32.3135 578.036 33.5408 573.96 33.5408H545.85V8.51624H573.96C578.305 8.51624 581.377 9.75849 583.145 12.243C584.913 14.7275 585.812 17.661 585.812 21.0285C585.812 24.3961 584.853 27.4344 582.95 29.8739Z" fill="#091930"/>
<path d="M690.131 1.06274H682.669V68.9375H690.131V1.06274Z" fill="#091930"/>
<path d="M761.259 55.9911C761.259 58.6253 757.768 59.5832 756.435 57.3082L723.17 1.06274H708.786V68.9375H716.248V14.0689C716.248 11.4198 719.739 10.4769 721.087 12.7519L754.082 68.9225H768.736V1.06274H761.274V55.9762L761.259 55.9911Z" fill="#091930"/>
<path d="M834.741 38.5247C831.235 35.9953 826.679 34.2442 821.09 33.2713L805.103 30.6072C801.192 29.9038 798.06 28.8262 795.708 27.4193C793.355 25.9974 792.171 23.6476 792.171 20.3699C792.171 16.7329 793.31 14.009 795.573 12.183C797.835 10.372 800.547 9.12978 803.694 8.45627C806.841 7.79773 809.763 7.4535 812.415 7.4535C815.516 7.4535 818.543 7.96237 821.48 8.98011C824.417 9.99786 826.829 11.6442 828.747 13.9042C830.65 16.1642 831.609 19.2025 831.609 23.019V25.5484H839.071V23.019C839.071 17.8704 837.827 13.5899 835.34 10.1775C832.853 6.76502 829.586 4.20569 825.556 2.5294C821.51 0.838144 817.09 0 812.295 0C804.383 0 797.82 1.66132 792.576 4.98396C787.332 8.30661 784.709 13.53 784.709 20.6243C784.709 24.4409 785.578 27.5241 787.302 29.8738C789.04 32.2236 791.392 34.0496 794.359 35.3368C797.341 36.6239 800.682 37.5818 804.413 38.1954L819.472 40.7248C823.113 41.2636 826.2 42.2065 828.732 43.5835C831.265 44.9604 832.523 47.3252 832.523 50.7077C832.523 54.7039 830.83 57.6673 827.459 59.628C824.087 61.5737 819.023 62.5615 812.265 62.5615C805.507 62.5615 800.293 61.0498 796.876 58.0415C793.46 55.0331 791.752 50.7676 791.752 45.2598V44.3318H784.155V45.1251C784.155 49.5553 785.114 53.6861 787.017 57.5027C788.92 61.3192 791.947 64.3575 796.082 66.6175C800.218 68.8775 805.612 70.015 812.265 70.015C822.304 70.015 829.421 68.2189 833.647 64.6269C837.857 61.0349 839.97 56.3951 839.97 50.7227C839.97 45.0502 838.217 41.0691 834.711 38.5397L834.741 38.5247Z" fill="#091930"/>
<path d="M603.449 68.8775L631.109 1.12256H642.946L669.273 68.8775H661.826L655.308 52.5337H617.668L610.881 68.8775H603.434H603.449ZM625.565 45.619H647.666C650.198 45.619 651.922 43.0747 651.008 40.7249L640.234 13.3505C639.05 10.3571 634.825 10.3122 633.581 13.2906L622.268 40.665C621.294 43.0148 623.033 45.6041 625.58 45.6041L625.565 45.619Z" fill="#091930"/>
<path d="M440.303 38.1056C438.31 36.1899 438.31 33.885 440.333 31.9393C442.206 30.1283 442.97 27.9431 442.311 25.4137C441.637 22.8394 439.914 21.2529 437.336 20.5944C434.519 19.876 432.781 18.08 432.047 15.2961C431.118 11.7789 428.256 9.68357 424.945 10.0877C421.498 10.5067 419.101 13.2756 419.056 16.9126C419.056 17.5262 419.041 21.8217 419.041 21.8217C419.041 21.8217 419.086 48.1783 419.056 48.1933C419.071 51.4561 419.101 53.761 419.146 54.21C419.461 57.3979 422.098 59.8824 425.095 60.077C428.361 60.2865 431.178 58.281 431.972 55.0631C432.706 52.0697 434.549 50.2887 437.501 49.4505C442.791 47.9389 444.259 41.9072 440.303 38.1206V38.1056Z" fill="#C4D219"/>
<path d="M393.748 38.1056C395.741 36.1899 395.741 33.885 393.718 31.9393C391.845 30.1283 391.081 27.9431 391.74 25.4137C392.415 22.8394 394.138 21.2529 396.715 20.5944C399.532 19.876 401.27 18.08 402.004 15.2961C402.933 11.7789 405.795 9.68357 409.107 10.0877C412.553 10.5067 414.95 13.2756 414.995 16.9126C414.995 17.5262 415.01 21.8217 415.01 21.8217C415.01 21.8217 414.935 53.746 414.891 54.21C414.576 57.3979 411.939 59.8824 408.942 60.077C405.675 60.2865 402.858 58.281 402.064 55.0631C401.33 52.0697 399.487 50.2887 396.535 49.4505C391.246 47.9389 389.777 41.9072 393.733 38.1206L393.748 38.1056Z" fill="#C4D219"/>
</g>
<defs>
<clipPath id="clip0_470_687">
<rect width="840" height="70" fill="white"/>
</clipPath>
</defs>
</svg>
