<svg width="39" height="40" viewBox="0 0 39 40" fill="none" xmlns="http://www.w3.org/2000/svg">
<path d="M36.2133 21.8046C34.7312 20.3877 34.7411 18.6756 36.2331 17.2391C37.6263 15.9009 38.1895 14.2774 37.7053 12.4079C37.2113 10.5089 35.9268 9.338 34.0099 8.84603C31.9151 8.3147 30.6306 6.98638 30.0773 4.9201C29.3856 2.32249 27.2613 0.767858 24.8009 1.06304C22.2418 1.3779 20.4632 3.4245 20.4336 6.11067C20.4336 6.57312 20.4237 9.75125 20.4237 9.75125C20.4237 9.75125 20.4533 29.253 20.4336 29.2628C20.4435 31.6735 20.4731 33.3757 20.5028 33.7103C20.7399 36.0619 22.6864 37.9019 24.9195 38.0495C27.3502 38.2069 29.435 36.7211 30.018 34.34C30.5615 32.1261 31.9349 30.8076 34.1186 30.1877C38.0413 29.0661 39.1381 24.6088 36.2034 21.7947L36.2133 21.8046Z" fill="#091930"/>
<path d="M1.6699 21.8046C3.15203 20.3877 3.14215 18.6756 1.65014 17.2391C0.256941 15.9009 -0.306268 14.2774 0.177894 12.4079C0.671937 10.5089 1.95645 9.338 3.87334 8.84603C5.96808 8.3147 7.25259 6.98638 7.80592 4.9201C8.49758 2.32249 10.622 0.767858 13.0823 1.06304C15.6414 1.3779 17.42 3.4245 17.4496 6.11067C17.4496 6.57312 17.4595 9.75125 17.4595 9.75125C17.4595 9.75125 17.4101 33.3757 17.3706 33.7103C17.1334 36.0619 15.1869 37.9019 12.9538 38.0495C10.5232 38.2069 8.43829 36.7211 7.85532 34.34C7.31187 32.1261 5.93843 30.8076 3.75476 30.1877C-0.167936 29.0661 -1.26471 24.6088 1.6699 21.7947V21.8046Z" fill="#091930"/>
</svg>
