<svg width="300" height="26" viewBox="0 0 300 26" fill="none" xmlns="http://www.w3.org/2000/svg">
<g clip-path="url(#clip0_408_2618)">
<path d="M18.9119 10.7897C19.3721 9.85429 19.6022 8.92955 19.6022 8.01016C19.6022 5.98429 19.0457 4.28982 17.9379 2.92677C16.8248 1.56372 15.0856 0.884865 12.7042 0.884865H0V25.1258H12.4634C14.9037 25.1258 16.7071 24.4309 17.863 23.0358C19.0189 21.6407 19.6022 19.9623 19.6022 18.0005C19.6022 17.017 19.3721 16.0762 18.9119 15.1729C18.4517 14.2695 17.8095 13.5479 16.9854 13.008C17.8095 12.4681 18.4517 11.7305 18.9119 10.8004V10.7897ZM15.9151 21.1489C15.2301 22.0202 14.0849 22.4585 12.4634 22.4585H2.665V14.3337H13.6086C14.7806 14.3337 15.6315 14.7292 16.1559 15.5203C16.6803 16.3114 16.9426 17.1346 16.9426 17.9898C16.9426 19.2246 16.6001 20.2776 15.9204 21.1489H15.9151ZM16.1773 10.4583C15.6689 11.2654 14.8448 11.6717 13.705 11.6717H4.90724C3.66572 11.6717 2.665 10.6668 2.665 9.43201V3.54148H12.7042C14.2294 3.54148 15.3104 3.9798 15.9633 4.85108C16.6108 5.72237 16.9372 6.77539 16.9372 8.01016C16.9372 8.83334 16.6803 9.65117 16.1773 10.4583Z" fill="white"/>
<path d="M43.0574 12.9973C44.1652 11.5701 44.7217 9.90774 44.7217 8.00481C44.7217 5.97894 44.1652 4.28448 43.0574 2.92142C41.9443 1.55837 40.2051 0.879517 37.8238 0.879517H25.1195V25.1205H27.7845V17.3805C27.7845 16.1404 28.7906 15.1408 30.0268 15.1408H36.1274L41.7249 25.1205H44.7217L39.0813 15.066C40.8259 14.8521 42.153 14.1626 43.0521 13.0027L43.0574 12.9973ZM41.04 11.1692C40.355 12.0405 39.2847 12.4788 37.8291 12.4788H27.7899V3.54148H37.8291C39.381 3.54148 40.4781 3.98514 41.1095 4.87246C41.741 5.75978 42.0621 6.80746 42.0621 8.01016C42.0621 9.21285 41.7196 10.2979 41.04 11.1692Z" fill="white"/>
<path d="M53.7175 0.879517H51.0525V25.1205H53.7175V0.879517Z" fill="white"/>
<path d="M79.4576 25.1205H82.1226V13.0027H72.2279V15.6646H78.2589C78.9386 15.6646 79.4683 16.2473 79.4041 16.9261C79.3078 17.9952 79.0884 18.9146 78.7459 19.679C78.2696 20.7427 77.4348 21.5338 76.2468 22.0576C75.0588 22.5815 73.3998 22.8434 71.2753 22.8434C69.4666 22.8434 67.9307 22.4478 66.6624 21.6567C65.3941 20.8656 64.4255 19.7698 63.762 18.3801C63.0984 16.9849 62.7452 15.3867 62.7131 13.58V12.4895C62.7131 10.7149 63.0556 9.12198 63.7352 7.71082C64.4148 6.29966 65.3995 5.19318 66.6838 4.38604C67.9682 3.5789 69.4987 3.17265 71.2753 3.17265C73.052 3.17265 74.5022 3.50406 75.7224 4.17222C76.9425 4.83504 77.8683 5.73305 78.5051 6.85557C79.1419 7.97808 79.4576 9.25561 79.4576 10.6828V10.8752H82.1226V10.5438C82.1226 8.61417 81.6624 6.89299 80.742 5.38561C79.8215 3.88358 78.5426 2.69157 76.9104 1.82029C75.2782 0.949004 73.3945 0.510689 71.27 0.510689C69.1455 0.510689 67.235 1.0078 65.5386 2.00737C63.8422 3.00695 62.499 4.37535 61.5197 6.11792C60.5351 7.86049 60.0427 9.85428 60.0427 12.1047V14.0557C60.0427 16.3381 60.5351 18.3319 61.5197 20.0424C62.5044 21.7529 63.8422 23.0946 65.5386 24.0568C67.235 25.0243 69.1455 25.5053 71.27 25.5053C73.3945 25.5053 74.9892 25.0724 76.3378 24.1957C77.012 23.7574 77.6649 23.2496 78.2108 22.6616C78.6656 22.1806 79.4737 22.4906 79.4683 23.1534L79.4523 25.1205H79.4576Z" fill="white"/>
<path d="M104.144 11.6663H90.3051V0.879517H87.6401V25.1205H90.3051V16.5733C90.3051 15.3332 91.3112 14.3337 92.5474 14.3337H106.386V25.1205H109.051V0.879517H106.386V9.42666C106.386 10.6668 105.38 11.6663 104.144 11.6663Z" fill="white"/>
<path d="M113.477 3.54148H122.135V25.1205H124.8V3.54148H133.464V0.879517H113.477V3.54148Z" fill="white"/>
<path d="M186.069 10.7897C186.529 9.85429 186.759 8.92955 186.759 8.01016C186.759 5.98429 186.202 4.28982 185.095 2.92677C183.982 1.56372 182.242 0.884865 179.861 0.884865H167.157V25.1258H179.62C182.06 25.1258 183.864 24.4309 185.02 23.0358C186.176 21.6407 186.759 19.9623 186.759 18.0005C186.759 17.017 186.529 16.0762 186.069 15.1729C185.608 14.2695 184.966 13.5479 184.142 13.008C184.966 12.4681 185.608 11.7305 186.069 10.8004V10.7897ZM183.072 21.1489C182.387 22.0202 181.242 22.4585 179.62 22.4585H172.064C170.822 22.4585 169.822 21.4536 169.822 20.2188V14.3337H180.765C181.937 14.3337 182.788 14.7292 183.313 15.5203C183.837 16.3114 184.099 17.1346 184.099 17.9898C184.099 19.2246 183.757 20.2776 183.077 21.1489H183.072ZM183.334 10.4583C182.826 11.2654 182.002 11.6717 180.862 11.6717H169.822V3.54148H179.861C181.386 3.54148 182.467 3.9798 183.12 4.85108C183.768 5.72237 184.094 6.77539 184.094 8.01016C184.094 8.83334 183.837 9.65117 183.334 10.4583Z" fill="white"/>
<path d="M210.219 12.9973C211.327 11.5701 211.884 9.90774 211.884 8.00481C211.884 5.97894 211.327 4.28448 210.219 2.92142C209.106 1.55837 207.367 0.879517 204.986 0.879517H192.281V25.1205H194.947V17.3805C194.947 16.1404 195.953 15.1408 197.189 15.1408H203.289L208.887 25.1205H211.884L206.243 15.066C206.243 15.066 206.275 15.066 206.297 15.0606C208.015 14.8361 209.32 14.1519 210.219 13.0027V12.9973ZM208.197 11.1692C207.512 12.0405 206.441 12.4788 204.986 12.4788H194.947V3.54148H204.986C206.538 3.54148 207.635 3.98514 208.266 4.87246C208.898 5.75978 209.219 6.80746 209.219 8.01016C209.219 9.21285 208.876 10.2979 208.197 11.1692Z" fill="white"/>
<path d="M246.475 0.879517H243.81V25.1205H246.475V0.879517Z" fill="white"/>
<path d="M271.878 20.4968C271.878 21.4376 270.631 21.7797 270.155 20.9672L258.275 0.879517H253.138V25.1205H255.803V5.52459C255.803 4.57847 257.05 4.24171 257.531 5.0542L269.315 25.1151H274.549V0.879517H271.884V20.4914L271.878 20.4968Z" fill="white"/>
<path d="M298.122 14.2588C296.87 13.3555 295.243 12.7301 293.247 12.3826L287.537 11.4312C286.14 11.1799 285.022 10.7951 284.181 10.2926C283.341 9.7848 282.918 8.94559 282.918 7.77496C282.918 6.47605 283.325 5.50321 284.133 4.85108C284.941 4.2043 285.91 3.76064 287.034 3.5201C288.157 3.2849 289.201 3.16196 290.148 3.16196C291.256 3.16196 292.337 3.3437 293.386 3.70718C294.435 4.07067 295.296 4.65865 295.981 5.46579C296.661 6.27293 297.003 7.35803 297.003 8.72108V9.62444H299.668V8.72108C299.668 6.8823 299.224 5.35354 298.336 4.13481C297.447 2.91608 296.281 2.00203 294.841 1.40336C293.396 0.799337 291.818 0.5 290.105 0.5C287.28 0.5 284.936 1.09333 283.063 2.27999C281.19 3.46665 280.253 5.33216 280.253 7.86583C280.253 9.22889 280.564 10.33 281.179 11.1692C281.8 12.0084 282.64 12.6606 283.7 13.1203C284.765 13.58 285.958 13.9221 287.291 14.1412L292.669 15.0446C293.969 15.237 295.071 15.5738 295.976 16.0655C296.88 16.5573 297.33 17.4019 297.33 18.6099C297.33 20.0371 296.725 21.0955 295.521 21.7957C294.317 22.4906 292.508 22.8434 290.095 22.8434C287.681 22.8434 285.819 22.3035 284.599 21.2291C283.379 20.1547 282.769 18.6313 282.769 16.6642V16.3328H280.055V16.6161C280.055 18.1983 280.398 19.6736 281.078 21.0367C281.757 22.3997 282.838 23.4848 284.315 24.292C285.792 25.0991 287.719 25.5053 290.095 25.5053C293.68 25.5053 296.222 24.8639 297.731 23.581C299.235 22.2982 299.989 20.6411 299.989 18.6152C299.989 16.5894 299.363 15.1675 298.111 14.2642L298.122 14.2588Z" fill="white"/>
<path d="M215.517 25.0991L225.396 0.900902H229.624L239.026 25.0991H236.366L234.039 19.262H220.596L218.172 25.0991H215.512H215.517ZM223.416 16.7925H231.309C232.214 16.7925 232.829 15.8838 232.503 15.0446L228.655 5.26802C228.232 4.19896 226.723 4.18292 226.279 5.24664L222.239 15.0232C221.891 15.8624 222.512 16.7872 223.421 16.7872L223.416 16.7925Z" fill="white"/>
<path d="M157.251 14.1092C156.539 13.425 156.539 12.6018 157.262 11.9069C157.931 11.2601 158.204 10.4797 157.968 9.57633C157.727 8.65694 157.112 8.09034 156.192 7.85514C155.185 7.59857 154.565 6.95713 154.302 5.96291C153.971 4.70676 152.949 3.95842 151.766 4.10274C150.535 4.25241 149.679 5.24129 149.663 6.5402C149.663 6.75936 149.657 8.29346 149.657 8.29346C149.657 8.29346 149.674 17.7065 149.663 17.7119C149.668 18.8772 149.679 19.7003 149.695 19.8607C149.807 20.9993 150.749 21.8866 151.819 21.9561C152.986 22.0309 153.992 21.3146 154.276 20.1654C154.538 19.0963 155.196 18.4602 156.25 18.1609C158.139 17.621 158.664 15.4669 157.251 14.1145V14.1092Z" fill="#CFFF22"/>
<path d="M140.624 14.1092C141.336 13.425 141.336 12.6018 140.614 11.9069C139.945 11.2601 139.672 10.4797 139.907 9.57633C140.148 8.65694 140.763 8.09034 141.684 7.85514C142.69 7.59857 143.311 6.95713 143.573 5.96291C143.905 4.70676 144.927 3.95842 146.109 4.10274C147.34 4.25241 148.197 5.24129 148.213 6.5402C148.213 6.75936 148.218 8.29346 148.218 8.29346C148.218 8.29346 148.191 19.695 148.175 19.8607C148.063 20.9993 147.121 21.8866 146.051 21.9561C144.884 22.0309 143.878 21.3146 143.594 20.1654C143.332 19.0963 142.674 18.4602 141.62 18.1609C139.731 17.621 139.206 15.4669 140.619 14.1145L140.624 14.1092Z" fill="#CFFF22"/>
</g>
<defs>
<clipPath id="clip0_408_2618">
<rect width="300" height="25" fill="white" transform="translate(0 0.5)"/>
</clipPath>
</defs>
</svg>
