<svg width="300" height="26" viewBox="0 0 300 26" fill="none" xmlns="http://www.w3.org/2000/svg">
<g clip-path="url(#clip0_408_1794)">
<path d="M18.9151 10.7895C19.3761 9.85526 19.6066 8.92763 19.6066 8.00658C19.6066 5.98026 19.0534 4.28289 17.9403 2.92105C16.8273 1.55921 15.0886 0.875 12.7044 0.875H0V25.1118H12.4673C14.9108 25.1118 16.7087 24.4145 17.8679 23.0197C19.027 21.625 19.6066 19.9474 19.6066 17.9803C19.6066 17 19.3761 16.0526 18.9151 15.1513C18.454 14.25 17.8152 13.5263 16.9854 12.9868C17.8086 12.4474 18.454 11.7105 18.9151 10.7763V10.7895ZM15.9184 21.1513C15.2335 22.0263 14.0875 22.4605 12.4673 22.4605H2.66734V14.3355H13.6133C14.7856 14.3355 15.6352 14.7303 16.1621 15.5263C16.6824 16.3158 16.9458 17.1447 16.9458 18C16.9458 19.2368 16.6034 20.2895 15.925 21.1579L15.9184 21.1513ZM16.1753 10.4605C15.6682 11.2697 14.8449 11.6711 13.6989 11.6711H4.90659C3.66842 11.6711 2.66075 10.6645 2.66075 9.42763V3.53947H12.6979C14.2192 3.53947 15.3059 3.97368 15.9579 4.84868C16.61 5.72368 16.9327 6.77632 16.9327 8.00658C16.9327 8.82895 16.6758 9.64474 16.1687 10.4539L16.1753 10.4605Z" fill="#091930"/>
<path d="M43.0595 13C44.1725 11.5724 44.7257 9.9079 44.7257 8.00658C44.7257 5.98026 44.1725 4.28289 43.0595 2.92105C41.9464 1.55921 40.2077 0.875 37.8236 0.875H25.1191V25.1118H27.7865V17.375C27.7865 16.1382 28.7941 15.1316 30.0323 15.1316H36.131L41.7291 25.1118H44.7257L39.0881 15.0592C40.8334 14.8421 42.1572 14.1579 43.0595 12.9934V13ZM41.0376 11.1711C40.3526 12.0461 39.2857 12.4803 37.8236 12.4803H27.7865V3.53947H37.8236C39.3779 3.53947 40.4712 3.98026 41.1034 4.86842C41.7357 5.75658 42.0518 6.80263 42.0518 8.00658C42.0518 9.21053 41.7093 10.2961 41.031 11.1645L41.0376 11.1711Z" fill="#091930"/>
<path d="M53.7223 0.881577H51.0549V25.1184H53.7223V0.881577Z" fill="#091930"/>
<path d="M79.4603 25.1184H82.1276V13H72.2288V15.6645H78.255C78.9334 15.6645 79.4603 16.25 79.401 16.9276C79.3088 18 79.0849 18.9145 78.7424 19.6842C78.2682 20.7434 77.4318 21.5395 76.2463 22.0592C75.0542 22.5789 73.4011 22.8421 71.2738 22.8421C69.4627 22.8421 67.9281 22.4474 66.657 21.6513C65.3859 20.8618 64.4178 19.7697 63.7526 18.375C63.0874 16.9803 62.7384 15.3816 62.7054 13.5724V12.4803C62.7054 10.7039 63.0479 9.11184 63.7263 7.70395C64.4112 6.29605 65.3925 5.18421 66.6768 4.375C67.9611 3.56579 69.489 3.16447 71.2673 3.16447C73.0455 3.16447 74.4944 3.5 75.7128 4.16447C76.9312 4.82895 77.8599 5.72368 78.4987 6.84868C79.131 7.97368 79.4537 9.25 79.4537 10.6776V10.8684H82.121V10.5329C82.121 8.59869 81.66 6.88158 80.738 5.375C79.8159 3.86842 78.5382 2.68421 76.9049 1.80921C75.2716 0.940789 73.3945 0.5 71.2673 0.5C69.14 0.5 67.23 1 65.5308 2C63.8316 3 62.4947 4.36842 61.5134 6.11184C60.532 7.85526 60.0381 9.84868 60.0381 12.0987V14.0461C60.0381 16.3289 60.532 18.3224 61.5134 20.0329C62.4947 21.7434 63.8382 23.0855 65.5308 24.0461C67.23 25.0132 69.14 25.4934 71.2673 25.4934C73.3945 25.4934 74.9884 25.0592 76.3319 24.1842C77.0103 23.75 77.6557 23.2368 78.2089 22.6513C78.6634 22.1645 79.4734 22.4803 79.4669 23.1447L79.4537 25.1118L79.4603 25.1184Z" fill="#091930"/>
<path d="M104.145 11.6711H90.3075V0.881577H87.6401V25.1184H90.3075V16.5724C90.3075 15.3355 91.3151 14.3289 92.5533 14.3289H106.391V25.1184H109.058V0.881577H106.391V9.42763C106.391 10.6645 105.383 11.6711 104.145 11.6711Z" fill="#091930"/>
<path d="M113.477 3.53947H122.138V25.1184H124.799V3.53947H133.459V0.881577H113.477V3.53947Z" fill="#091930"/>
<path d="M186.068 10.7895C186.529 9.85526 186.76 8.92763 186.76 8.00658C186.76 5.98026 186.207 4.28289 185.094 2.92105C183.981 1.55921 182.242 0.875 179.858 0.875H167.153V25.1118H179.621C182.064 25.1118 183.862 24.4145 185.021 23.0197C186.18 21.625 186.76 19.9474 186.76 17.9803C186.76 17 186.529 16.0526 186.068 15.1513C185.607 14.25 184.969 13.5263 184.139 12.9868C184.962 12.4474 185.607 11.7105 186.068 10.7763V10.7895ZM183.072 21.1513C182.387 22.0263 181.241 22.4605 179.621 22.4605H172.06C170.822 22.4605 169.814 21.4539 169.814 20.2171V14.3289H180.76C181.932 14.3289 182.782 14.7237 183.309 15.5197C183.829 16.3092 184.093 17.1382 184.093 17.9934C184.093 19.2303 183.75 20.2829 183.072 21.1513ZM183.335 10.4605C182.828 11.2697 182.005 11.6711 180.859 11.6711H169.821V3.53947H179.858C181.379 3.53947 182.466 3.97368 183.118 4.84868C183.77 5.72368 184.093 6.77632 184.093 8.00658C184.093 8.82895 183.836 9.64474 183.329 10.4539L183.335 10.4605Z" fill="#091930"/>
<path d="M210.213 13C211.326 11.5724 211.879 9.9079 211.879 8.00658C211.879 5.98026 211.326 4.28289 210.213 2.92105C209.1 1.55921 207.361 0.875 204.977 0.875H192.272V25.1118H194.94V17.375C194.94 16.1382 195.947 15.1316 197.186 15.1316H203.284L208.882 25.1118H211.879L206.241 15.0592C206.241 15.0592 206.274 15.0592 206.294 15.0526C208.013 14.8289 209.317 14.1447 210.213 12.9934V13ZM208.191 11.1711C207.506 12.0461 206.439 12.4803 204.977 12.4803H194.94V3.53947H204.977C206.531 3.53947 207.624 3.98026 208.257 4.86842C208.889 5.75658 209.205 6.80263 209.205 8.00658C209.205 9.21053 208.863 10.2961 208.184 11.1645L208.191 11.1711Z" fill="#091930"/>
<path d="M246.475 0.881577H243.808V25.1184H246.475V0.881577Z" fill="#091930"/>
<path d="M271.878 20.4934C271.878 21.4342 270.633 21.7763 270.152 20.9671L258.271 0.881577H253.134V25.1184H255.801V5.52631C255.801 4.57894 257.052 4.24342 257.527 5.05921L269.316 25.125H274.552V0.881577H271.884V20.5L271.878 20.4934Z" fill="#091930"/>
<path d="M298.116 14.2566C296.865 13.3553 295.238 12.7303 293.236 12.3816L287.526 11.4342C286.13 11.1776 285.01 10.8026 284.174 10.2961C283.331 9.78948 282.916 8.94737 282.916 7.77632C282.916 6.48027 283.318 5.5 284.128 4.85527C284.938 4.20395 285.906 3.76316 287.032 3.52632C288.158 3.28948 289.199 3.17106 290.147 3.17106C291.26 3.17106 292.334 3.35527 293.381 3.71711C294.428 4.07895 295.291 4.66448 295.976 5.47369C296.661 6.2829 296.997 7.36842 296.997 8.73027V9.63158H299.664V8.73027C299.664 6.89474 299.216 5.36185 298.334 4.14474C297.445 2.92763 296.279 2.01316 294.837 1.41448C293.394 0.815792 291.814 0.513161 290.101 0.513161C287.276 0.513161 284.931 1.10527 283.061 2.29606C281.19 3.48684 280.255 5.34869 280.255 7.88158C280.255 9.24342 280.565 10.3487 281.184 11.1842C281.803 12.0263 282.639 12.6711 283.706 13.1316C284.767 13.5921 285.965 13.9342 287.296 14.1513L292.67 15.0526C293.967 15.2434 295.074 15.5855 295.976 16.0724C296.878 16.5658 297.333 17.4145 297.333 18.6118C297.333 20.0395 296.727 21.0987 295.522 21.7961C294.316 22.4934 292.505 22.8421 290.095 22.8421C287.684 22.8421 285.82 22.3026 284.602 21.2237C283.384 20.1447 282.771 18.625 282.771 16.6579V16.3224H280.058V16.6053C280.058 18.1908 280.4 19.6645 281.078 21.0263C281.763 22.3882 282.837 23.4737 284.312 24.2829C285.787 25.0921 287.717 25.4934 290.095 25.4934C293.678 25.4934 296.226 24.8487 297.735 23.5658C299.243 22.2829 299.994 20.625 299.994 18.5987C299.994 16.5724 299.368 15.1513 298.116 14.25V14.2566Z" fill="#091930"/>
<path d="M215.521 25.0987L225.4 0.901314H229.628L239.033 25.0987H236.372L234.047 19.2632H220.605L218.182 25.0987H215.521ZM223.418 16.7961H231.308C232.21 16.7961 232.829 15.8882 232.5 15.0526L228.647 5.27631C228.225 4.20395 226.711 4.19079 226.276 5.25658L222.232 15.0329C221.883 15.875 222.502 16.7961 223.418 16.7961Z" fill="#091930"/>
<path d="M157.248 14.1118C156.537 13.4276 156.537 12.6053 157.261 11.9079C157.933 11.2632 158.203 10.4803 157.966 9.57236C157.729 8.65131 157.11 8.08552 156.188 7.85526C155.18 7.59868 154.561 6.96052 154.297 5.96052C153.962 4.70394 152.941 3.95394 151.762 4.09868C150.53 4.25 149.674 5.23684 149.661 6.53947C149.661 6.76315 149.654 8.29605 149.654 8.29605C149.654 8.29605 149.667 17.7105 149.661 17.7105C149.667 18.875 149.681 19.6974 149.694 19.8618C149.806 21 150.748 21.8882 151.821 21.9539C152.993 22.0329 153.994 21.3158 154.278 20.1645C154.541 19.0987 155.2 18.4605 156.253 18.1579C158.144 17.6184 158.664 15.4605 157.255 14.1118H157.248Z" fill="#5DBBA4"/>
<path d="M140.625 14.1118C141.336 13.4276 141.336 12.6053 140.612 11.9079C139.94 11.2632 139.67 10.4803 139.907 9.57236C140.144 8.65131 140.763 8.08552 141.685 7.85526C142.693 7.59868 143.312 6.96052 143.575 5.96052C143.911 4.70394 144.932 3.95394 146.111 4.09868C147.342 4.25 148.199 5.23684 148.212 6.53947C148.212 6.76315 148.218 8.29605 148.218 8.29605C148.218 8.29605 148.192 19.6974 148.179 19.8618C148.067 21 147.125 21.8882 146.052 21.9539C144.879 22.0329 143.878 21.3158 143.595 20.1645C143.332 19.0987 142.673 18.4605 141.619 18.1579C139.729 17.6184 139.209 15.4605 140.618 14.1118H140.625Z" fill="#5DBBA4"/>
</g>
<defs>
<clipPath id="clip0_408_1794">
<rect width="300" height="25" fill="white" transform="translate(0 0.5)"/>
</clipPath>
</defs>
</svg>
