<svg width="118" height="46" viewBox="0 0 118 46" fill="none" xmlns="http://www.w3.org/2000/svg">
<g clip-path="url(#clip0_408_4809)">
<path d="M15.1264 7.71836C15.4494 7.06214 15.6131 6.41451 15.6131 5.76687C15.6131 4.34293 15.2211 3.15488 14.4416 2.19844C13.662 1.24199 12.4345 0.765917 10.759 0.765917H1.81763V17.7674H10.5911C12.3096 17.7674 13.5758 17.2785 14.3899 16.3006C15.2039 15.3227 15.6131 14.1433 15.6131 12.7665C15.6131 12.076 15.4494 11.4155 15.1264 10.7807C14.8034 10.1459 14.3511 9.63982 13.7697 9.26239C14.3511 8.88496 14.8034 8.36599 15.1264 7.70978M13.0202 14.9839C12.5422 15.5972 11.7324 15.9017 10.5911 15.9017H3.6955V10.2017H11.3965C12.2234 10.2017 12.8178 10.4805 13.1882 11.0337C13.5543 11.5913 13.7395 12.166 13.7395 12.7665C13.7395 13.6329 13.4983 14.3706 13.0202 14.9839ZM13.2011 7.48246C12.8437 8.04861 12.2622 8.33168 11.4611 8.33168H5.27187C4.40185 8.33168 3.69119 7.62829 3.69119 6.75763V2.63162H10.7547C11.8272 2.63162 12.5895 2.93614 13.0461 3.54947C13.5026 4.16279 13.7309 4.9005 13.7309 5.76687C13.7309 6.34588 13.55 6.91632 13.1968 7.48246" fill="#091930"/>
<path d="M32.1176 9.26668C32.8971 8.26735 33.2891 7.10074 33.2891 5.76687C33.2891 4.34293 32.8971 3.15488 32.1176 2.19844C31.338 1.24199 30.1105 0.765917 28.435 0.765917H19.4979V17.7674H21.3715V12.3376C21.3715 11.4712 22.0778 10.7635 22.9522 10.7635H27.2463L31.1829 17.7632H33.2934L29.3266 10.7121C30.5541 10.562 31.4844 10.0773 32.1219 9.26239M30.6962 7.98427C30.2138 8.5976 29.4644 8.90212 28.435 8.90212H21.3715V2.63162H28.435C29.529 2.63162 30.3 2.94472 30.7436 3.56662C31.1915 4.18852 31.4112 4.92194 31.4112 5.76687C31.4112 6.6118 31.17 7.37095 30.6919 7.98427" fill="#091930"/>
<path d="M39.6161 0.765917H37.7426V17.7674H39.6161V0.765917Z" fill="#091930"/>
<path d="M57.7272 17.7674H59.6008V9.26668H52.6363V11.1324H56.8788C57.3568 11.1324 57.7272 11.5441 57.6842 12.0159C57.6153 12.7665 57.4645 13.4098 57.2233 13.9502C56.8874 14.6965 56.3016 15.2498 55.466 15.6187C54.6305 15.9875 53.4633 16.1677 51.9687 16.1677C50.6982 16.1677 49.6128 15.8889 48.7212 15.3356C47.8297 14.778 47.1491 14.0146 46.6797 13.0367C46.2102 12.0588 45.9647 10.9351 45.9432 9.66984V8.90212C45.9432 7.65831 46.1844 6.53889 46.6625 5.55242C47.1405 4.56167 47.834 3.78536 48.7384 3.21922C49.6429 2.65307 50.7197 2.37 51.9687 2.37C53.2178 2.37 54.2385 2.6016 55.0999 3.0691C55.957 3.5366 56.6117 4.16279 57.0596 4.95196C57.5076 5.74114 57.7272 6.63324 57.7272 7.63687V7.76983H59.6008V7.53822C59.6008 6.1829 59.2778 4.9777 58.6317 3.92261C57.9857 2.86752 57.0855 2.03546 55.9355 1.42213C54.7855 0.813096 53.4633 0.50429 51.9687 0.50429C50.4742 0.50429 49.1304 0.855986 47.933 1.55509C46.74 2.25419 45.7967 3.21493 45.1033 4.43729C44.4099 5.65965 44.0653 7.05785 44.0653 8.6362V10.0044C44.0653 11.6042 44.4099 13.0067 45.1033 14.2033C45.7967 15.4042 46.74 16.3435 47.933 17.0212C49.1261 17.6988 50.4699 18.0376 51.9687 18.0376C53.4676 18.0376 54.5831 17.7331 55.535 17.1198C56.013 16.811 56.4653 16.455 56.8529 16.0433C57.1716 15.7044 57.7402 15.9232 57.7359 16.3864L57.7229 17.7674H57.7272Z" fill="#091930"/>
<path d="M75.0976 8.33597H65.3594V0.765917H63.4858V17.7674H65.3594V11.7714C65.3594 10.9051 66.0658 10.1974 66.9401 10.1974H76.6783V17.7632H78.5519V0.765917H76.6783V6.76191C76.6783 7.62829 75.972 8.33597 75.0976 8.33597Z" fill="#091930"/>
<path d="M81.6658 2.63162H87.7602V17.7674H89.6338V2.63162H95.7283V0.765917H81.6658V2.63162Z" fill="#091930"/>
<path d="M37.8374 35.1807C38.1604 34.5245 38.3241 33.8769 38.3241 33.2292C38.3241 31.8053 37.9322 30.6172 37.1526 29.6608C36.373 28.7043 35.1455 28.2283 33.4701 28.2283H24.533V45.2298H33.3064C35.0249 45.2298 36.2912 44.7409 37.1052 43.763C37.9192 42.7851 38.3284 41.6056 38.3284 40.2288C38.3284 39.5383 38.1647 38.8778 37.8417 38.243C37.5187 37.6083 37.0664 37.1022 36.485 36.7247C37.0664 36.3473 37.5187 35.8283 37.8417 35.1721M35.727 42.4462C35.2489 43.0596 34.4392 43.3641 33.3021 43.3641H27.9829C27.1129 43.3641 26.4022 42.6607 26.4022 41.79V37.6597H34.1032C34.9302 37.6597 35.5245 37.9385 35.8949 38.4918C36.261 39.0494 36.4462 39.6241 36.4462 40.2246C36.4462 41.0909 36.205 41.8286 35.727 42.442M35.9122 34.9491C35.5547 35.5153 34.9732 35.7983 34.1721 35.7983H26.4065V30.0983H33.4701C34.5425 30.0983 35.3049 30.4028 35.7614 31.0161C36.218 31.6294 36.4462 32.3671 36.4462 33.2335C36.4462 33.8125 36.2653 34.383 35.9122 34.9491Z" fill="#091930"/>
<path d="M54.8243 36.729C55.6039 35.7297 55.9959 34.5631 55.9959 33.2292C55.9959 31.8053 55.6039 30.6172 54.8243 29.6608C54.0448 28.7043 52.8173 28.2283 51.1418 28.2283H42.2047V45.2298H44.0783V39.7999C44.0783 38.9336 44.7846 38.2259 45.659 38.2259H49.9531L53.8897 45.2255H56.0002L52.0334 38.1744C53.2609 38.0243 54.1912 37.5397 54.8287 36.7247M53.403 35.4466C52.9206 36.06 52.1712 36.3645 51.1418 36.3645H44.0783V30.0983H51.1418C52.2358 30.0983 53.0068 30.4114 53.4504 31.0333C53.8983 31.6552 54.118 32.3886 54.118 33.2335C54.118 34.0784 53.8768 34.8376 53.3987 35.4509" fill="#091930"/>
<path d="M80.335 28.2283H78.4614V45.2298H80.335V28.2283Z" fill="#091930"/>
<path d="M98.2134 41.9873C98.2134 42.6478 97.3391 42.888 96.9988 42.3176L88.6389 28.2283H85.0253V45.2298H86.8988V31.4836C86.8988 30.8231 87.7775 30.5829 88.1134 31.1534L96.4045 45.2255H100.087V28.224H98.2134V41.983V41.9873Z" fill="#091930"/>
<path d="M116.678 37.6126C115.795 36.9778 114.653 36.5403 113.245 36.2958L109.227 35.6311C108.245 35.4552 107.456 35.185 106.866 34.829C106.276 34.473 105.979 33.8854 105.979 33.062C105.979 32.1527 106.263 31.4664 106.832 31.0118C107.4 30.5572 108.081 30.2441 108.873 30.0768C109.666 29.9095 110.398 29.8281 111.066 29.8281C111.845 29.8281 112.608 29.9567 113.344 30.2098C114.081 30.4671 114.688 30.8746 115.17 31.445C115.648 32.0112 115.89 32.7746 115.89 33.7267V34.3615H117.763V33.7267C117.763 32.44 117.449 31.3635 116.824 30.51C116.2 29.6565 115.377 29.0174 114.365 28.5928C113.348 28.1725 112.237 27.9581 111.036 27.9581C109.05 27.9581 107.396 28.3741 106.082 29.2104C104.765 30.0425 104.106 31.3506 104.106 33.1263C104.106 34.0827 104.325 34.8547 104.76 35.4423C105.195 36.0299 105.785 36.4888 106.535 36.8105C107.284 37.1322 108.124 37.3724 109.063 37.5268L112.845 38.1615C113.758 38.2945 114.533 38.5347 115.17 38.8778C115.808 39.2209 116.126 39.8171 116.126 40.662C116.126 41.6614 115.7 42.4076 114.856 42.8966C114.007 43.3855 112.737 43.63 111.04 43.63C109.343 43.63 108.034 43.2526 107.172 42.4977C106.311 41.7428 105.884 40.6749 105.884 39.2981V39.0665H103.976V39.2681C103.976 40.379 104.218 41.4126 104.696 42.369C105.174 43.3255 105.936 44.0846 106.974 44.6508C108.012 45.2169 109.369 45.5 111.04 45.5C113.564 45.5 115.351 45.0497 116.415 44.149C117.475 43.2483 118.004 42.086 118.004 40.6663C118.004 39.2467 117.565 38.2516 116.682 37.6168" fill="#091930"/>
<path d="M58.5542 45.2169L65.5058 28.2454H68.482L75.0976 45.2169H73.224L71.5873 41.1252H62.1291L60.4235 45.2169H58.5499H58.5542ZM64.1146 39.3925H69.6664C70.2995 39.3925 70.7345 38.7577 70.502 38.1658L67.7928 31.3078C67.4956 30.5572 66.4318 30.5486 66.1217 31.2949L63.2791 38.153C63.0336 38.7449 63.4686 39.3925 64.1103 39.3925" fill="#091930"/>
<path d="M15.7854 37.2866C15.1393 36.669 15.1436 35.9227 15.794 35.2965C16.4013 34.7132 16.6468 34.0055 16.4357 33.1906C16.2204 32.3628 15.6605 31.8525 14.8249 31.638C13.9118 31.4064 13.3519 30.8274 13.1107 29.9267C12.8092 28.7944 11.8832 28.1168 10.8107 28.2454C9.69521 28.3827 8.91994 29.2748 8.90702 30.4457C8.90702 30.6473 8.90271 32.0326 8.90271 32.0326C8.90271 32.0326 8.91563 40.5334 8.90702 40.5376C8.91132 41.5884 8.92425 42.3304 8.93717 42.4763C9.04054 43.5013 9.88902 44.3034 10.8624 44.3677C11.9219 44.4363 12.8307 43.7887 13.0848 42.7508C13.3217 41.7857 13.9204 41.211 14.8723 40.9408C16.5822 40.4519 17.0602 38.509 15.7811 37.2823L15.7854 37.2866Z" fill="#091930"/>
<path d="M0.727875 37.2866C1.37393 36.669 1.36962 35.9227 0.719261 35.2965C0.111969 34.7132 -0.133533 34.0055 0.0775122 33.1906C0.292864 32.3628 0.85278 31.8525 1.68835 31.638C2.60144 31.4064 3.16135 30.8274 3.40255 29.9267C3.70404 28.7944 4.63005 28.1168 5.70251 28.2454C6.81803 28.3827 7.5933 29.2748 7.60622 30.4457C7.60622 30.6473 7.61053 32.0326 7.61053 32.0326C7.61053 32.0326 7.58899 42.3304 7.57176 42.4763C7.46839 43.5013 6.61991 44.3034 5.64652 44.3677C4.58698 44.4363 3.6782 43.7887 3.42408 42.7508C3.1872 41.7857 2.58852 41.211 1.63666 40.9408C-0.0732343 40.4519 -0.551316 38.509 0.727875 37.2823V37.2866Z" fill="#091930"/>
</g>
<defs>
<clipPath id="clip0_408_4809">
<rect width="118" height="45" fill="white" transform="translate(0 0.5)"/>
</clipPath>
</defs>
</svg>
