<svg width="25" height="25" viewBox="0 0 25 25" fill="none" xmlns="http://www.w3.org/2000/svg">
<path fill-rule="evenodd" clip-rule="evenodd" d="M12.4053 14.5C14.6144 14.5 16.4053 12.7091 16.4053 10.5C16.4053 8.29086 14.6144 6.5 12.4053 6.5C10.1961 6.5 8.40527 8.29086 8.40527 10.5C8.40527 12.7091 10.1961 14.5 12.4053 14.5ZM12.4053 12.5C13.5099 12.5 14.4053 11.6046 14.4053 10.5C14.4053 9.39543 13.5099 8.5 12.4053 8.5C11.3007 8.5 10.4053 9.39543 10.4053 10.5C10.4053 11.6046 11.3007 12.5 12.4053 12.5Z" fill="currentColor"/>
<path fill-rule="evenodd" clip-rule="evenodd" d="M21.4053 10.5C21.4053 15.463 16.1105 21.049 13.6433 23.3825C12.9397 24.0479 11.8709 24.0479 11.1673 23.3825C8.7001 21.049 3.40527 15.463 3.40527 10.5C3.40527 5.52944 7.43471 1.5 12.4053 1.5C17.3759 1.5 21.4053 5.52944 21.4053 10.5ZM19.4053 10.5C19.4053 12.3435 18.3846 14.5547 16.8164 16.7728C15.3487 18.8488 13.593 20.6658 12.4053 21.7999C11.2176 20.6658 9.46188 18.8488 7.99418 16.7728C6.42602 14.5547 5.40527 12.3435 5.40527 10.5C5.40527 6.63401 8.53928 3.5 12.4053 3.5C16.2713 3.5 19.4053 6.63401 19.4053 10.5Z" fill="currentColor"/>
</svg>
