<svg width="21" height="20" viewBox="0 0 21 20" fill="none" xmlns="http://www.w3.org/2000/svg">
<path fill-rule="evenodd" clip-rule="evenodd" d="M10.5 20C16.0228 20 20.5 15.5228 20.5 10C20.5 4.47715 16.0228 0 10.5 0C4.97715 0 0.5 4.47715 0.5 10C0.5 15.5228 4.97715 20 10.5 20ZM18.5 10C18.5 10.6906 18.4125 11.3608 18.248 12H14.91C14.969 11.3538 15 10.6849 15 10C15 9.3151 14.969 8.6462 14.91 8H18.248C18.4125 8.6392 18.5 9.3094 18.5 10ZM14.6256 6H17.4297C16.546 4.47231 15.1716 3.26398 13.5221 2.59049C13.9904 3.53438 14.3689 4.69453 14.6256 6ZM7.47794 2.59049C5.82837 3.26398 4.45398 4.47231 3.57026 6H6.37444C6.63111 4.69453 7.00959 3.53438 7.47794 2.59049ZM6.09002 8H2.75204C2.58751 8.6392 2.5 9.3094 2.5 10C2.5 10.6906 2.58751 11.3608 2.75204 12H6.09002C6.03099 11.3538 6 10.6849 6 10C6 9.3151 6.03099 8.6462 6.09002 8ZM6.37444 14H3.57026C4.45398 15.5277 5.82837 16.736 7.47794 17.4095C7.00959 16.4656 6.63111 15.3055 6.37444 14ZM13.5221 17.4095C15.1716 16.736 16.546 15.5277 17.4297 14H14.6256C14.3689 15.3055 13.9904 16.4656 13.5221 17.4095ZM13 10C13 10.6943 12.9652 11.3635 12.9008 12H8.09918C8.03484 11.3635 8 10.6943 8 10C8 9.3057 8.03484 8.6365 8.09918 8H12.9008C12.9652 8.6365 13 9.3057 13 10ZM12.5822 6C12.3907 5.14167 12.1428 4.38215 11.8581 3.74966C11.5204 2.99913 11.1701 2.51413 10.8818 2.24316C10.7431 2.11273 10.6393 2.05118 10.579 2.02377C10.531 2.00192 10.508 2.00012 10.5017 2H10.4983C10.492 2.00012 10.469 2.00192 10.421 2.02377C10.3607 2.05118 10.2569 2.11273 10.1182 2.24316C9.8299 2.51413 9.4796 2.99913 9.1419 3.74966C8.8572 4.38215 8.6093 5.14167 8.41779 6H12.5822ZM8.41779 14C8.6093 14.8583 8.8572 15.6179 9.1419 16.2503C9.4796 17.0009 9.8299 17.4859 10.1182 17.7568C10.2569 17.8873 10.3607 17.9488 10.421 17.9762C10.4689 17.998 10.4919 17.9999 10.4983 18H10.5017C10.5081 17.9999 10.5311 17.998 10.579 17.9762C10.6393 17.9488 10.7431 17.8873 10.8818 17.7568C11.1701 17.4859 11.5204 17.0009 11.8581 16.2503C12.1428 15.6179 12.3907 14.8583 12.5822 14H8.41779Z" fill="currentColor"/>
</svg>
