<svg width="24" height="24" viewBox="0 0 24 24" fill="none" xmlns="http://www.w3.org/2000/svg">
<g clip-path="url(#clip0_89_5771)">
<path fill-rule="evenodd" clip-rule="evenodd" d="M2.82821 0.765988C3.09067 0.503921 3.40583 0.300625 3.7528 0.169573C4.09977 0.0385204 4.47064 -0.0172961 4.84082 0.00582224C5.21099 0.0289406 5.57203 0.130466 5.9 0.30367C6.22797 0.476874 6.51539 0.717802 6.74321 1.01049L9.43571 4.46949C9.92921 5.10399 10.1032 5.93049 9.90821 6.71049L9.08771 9.99549C9.04529 10.1656 9.04758 10.3439 9.09436 10.5129C9.14114 10.6818 9.23083 10.8359 9.35471 10.96L13.0402 14.6455C13.1645 14.7696 13.3187 14.8595 13.488 14.9062C13.6573 14.953 13.8358 14.9552 14.0062 14.9125L17.2897 14.092C17.6746 13.9957 18.0764 13.9883 18.4646 14.0701C18.8529 14.152 19.2174 14.321 19.5307 14.5645L22.9897 17.2555C24.2332 18.223 24.3472 20.0605 23.2342 21.172L21.6832 22.723C20.5732 23.833 18.9142 24.3205 17.3677 23.776C13.4095 22.3833 9.81561 20.1172 6.85271 17.146C3.88164 14.1835 1.61562 10.5902 0.222706 6.63249C-0.320294 5.08749 0.167206 3.42699 1.27721 2.31699L2.82821 0.765988Z" fill="currentColor"/>
</g>
<defs>
<clipPath id="clip0_89_5771">
<rect width="24" height="24" fill="currentColor"/>
</clipPath>
</defs>
</svg>
