<svg width="17" height="17" viewBox="0 0 17 17" fill="none" xmlns="http://www.w3.org/2000/svg">
<path fill-rule="evenodd" clip-rule="evenodd" d="M14.5031 14.7282C14.9219 14.3697 15.1641 13.8468 15.1666 13.2956V11.2865C15.1666 10.7016 14.7853 10.185 14.2265 10.0125L11.9087 9.29723C11.4903 9.16816 11.0353 9.25263 10.6912 9.52323L9.76625 10.2507C9.19018 9.84716 8.64112 9.3881 8.12652 8.87356C7.61198 8.35896 7.15292 7.8099 6.74938 7.23383L7.47685 6.30889C7.74745 5.96479 7.83192 5.50976 7.70285 5.09145L6.9876 2.77366C6.81512 2.21474 6.29849 1.8335 5.71356 1.8335H3.70452C3.15326 1.83604 2.63036 2.07823 2.2719 2.49704C1.97563 2.8432 1.80796 3.28481 1.83636 3.73956C2.01542 6.60566 3.19986 9.42036 5.38978 11.6103C7.57972 13.8002 10.3945 14.9846 13.2605 15.1637C13.7153 15.1921 14.1569 15.0244 14.5031 14.7282ZM5.70136 6.40952C5.33792 6.87162 5.32002 7.51723 5.6573 7.99876C6.10513 8.6381 6.61409 9.2467 7.18372 9.81636C7.75338 10.386 8.36198 10.895 9.00132 11.3428C9.48285 11.68 10.1285 11.6622 10.5906 11.2987L11.5155 10.5713L13.8333 11.2865V13.2916C13.8319 13.4546 13.76 13.6092 13.6361 13.7152C13.5216 13.8132 13.4129 13.8373 13.3437 13.833C10.7893 13.6734 8.28405 12.619 6.33258 10.6675C4.38112 8.71603 3.32669 6.2108 3.1671 3.65642C3.16278 3.58715 3.18689 3.47851 3.28487 3.36403C3.39094 3.2401 3.54545 3.1682 3.7085 3.16683H5.71356L6.42881 5.48461L5.70136 6.40952Z" fill="currentColor"/>
</svg>
