<svg width="32" height="32" viewBox="0 0 32 32" fill="none" xmlns="http://www.w3.org/2000/svg">
<g>
<path fill-rule="evenodd" clip-rule="evenodd" d="M16 2.66666C10.84 2.66666 6.66667 6.83999 6.66667 12C6.66667 17.56 12.56 25.2267 14.9867 28.1467C15.52 28.7867 16.4933 28.7867 17.0267 28.1467C19.44 25.2267 25.3333 17.56 25.3333 12C25.3333 6.83999 21.16 2.66666 16 2.66666ZM16 15.3333C14.16 15.3333 12.6667 13.84 12.6667 12C12.6667 10.16 14.16 8.66666 16 8.66666C17.84 8.66666 19.3333 10.16 19.3333 12C19.3333 13.84 17.84 15.3333 16 15.3333Z" fill="currentColor"/>
</g>
</svg>
