<svg width="16" height="16" viewBox="0 0 16 16" fill="none" xmlns="http://www.w3.org/2000/svg">
<path d="M7.33525 13.3333C7.33525 13.7015 7.63379 14 8.00192 14C8.37012 14 8.66859 13.7015 8.66859 13.3333V8.6666H13.3353C13.7035 8.6666 14.0019 8.36813 14.0019 7.99993C14.0019 7.63173 13.7035 7.33327 13.3353 7.33327H8.66859V2.66667C8.66859 2.29848 8.37012 2 8.00192 2C7.63379 2 7.33525 2.29848 7.33525 2.66667V7.33327H2.66862C2.30043 7.33327 2.00195 7.63173 2.00195 7.99993C2.00195 8.36813 2.30043 8.6666 2.66862 8.6666H7.33525V13.3333Z" fill="currentColor"/>
</svg>
