<svg width="17" height="16" viewBox="0 0 17 16" fill="none" xmlns="http://www.w3.org/2000/svg">
<path fill-rule="evenodd" clip-rule="evenodd" d="M7.50117 1.33334C4.37153 1.33334 1.83447 3.8704 1.83447 7.00001C1.83447 10.1296 4.37153 12.6667 7.50117 12.6667C8.82544 12.6667 10.0444 12.2117 11.009 11.4507L14.225 14.6667C14.4854 14.927 14.9074 14.927 15.1678 14.6667C15.4282 14.4063 15.4282 13.9842 15.1678 13.7239L11.9518 10.5079C12.7129 9.54328 13.1678 8.32434 13.1678 7.00001C13.1678 3.8704 10.6308 1.33334 7.50117 1.33334ZM3.16781 7.00001C3.16781 4.60678 5.10791 2.66668 7.50117 2.66668C9.89437 2.66668 11.8345 4.60678 11.8345 7.00001C11.8345 8.19681 11.3502 9.27921 10.5652 10.0641C9.78037 10.8491 8.69797 11.3333 7.50117 11.3333C5.10791 11.3333 3.16781 9.39328 3.16781 7.00001Z" fill="currentColor"/>
</svg>
