<svg width="17" height="16" viewBox="0 0 17 16" fill="none" xmlns="http://www.w3.org/2000/svg">
<path d="M6.11139 6.66668L8.50194 9.05721L10.8925 6.66668C11.1528 6.40636 11.5749 6.40636 11.8353 6.66668C11.8678 6.69928 11.8963 6.73434 11.9207 6.77128C12.0915 7.03008 12.0631 7.38174 11.8353 7.60954L8.97334 10.4715C8.84827 10.5965 8.67874 10.6667 8.50194 10.6667C8.32507 10.6667 8.15554 10.5965 8.03054 10.4715L5.16857 7.60954C4.90823 7.34914 4.90823 6.92708 5.16857 6.66668C5.20112 6.63416 5.23619 6.60569 5.27316 6.58128C5.53193 6.41043 5.88358 6.4389 6.11139 6.66668Z" fill="currentColor"/>
</svg>
