<svg width="16" height="16" viewBox="0 0 16 16" fill="none" xmlns="http://www.w3.org/2000/svg">
<path fill-rule="evenodd" clip-rule="evenodd" d="M2.33333 2C1.59695 2 1 2.59695 1 3.33333V10C1 10.7364 1.59695 11.3333 2.33333 11.3333H7.33333V12.6667H5.33333C4.96515 12.6667 4.66667 12.9651 4.66667 13.3333C4.66667 13.7015 4.96515 14 5.33333 14H10.6667C11.0349 14 11.3333 13.7015 11.3333 13.3333C11.3333 12.9651 11.0349 12.6667 10.6667 12.6667H8.66667V11.3333H13.6667C14.4031 11.3333 15 10.7364 15 10V3.33333C15 2.59695 14.4031 2 13.6667 2H2.33333ZM2.33333 3.33333V10H13.6667V3.33333H2.33333Z" fill="currentColor"/>
</svg>
