<svg width="50" height="50" viewBox="0 0 50 50" fill="none" xmlns="http://www.w3.org/2000/svg">
<rect width="50" height="50" rx="25" fill="currentColor"/>
<path d="M19.4751 35.1091L30.0842 24.4999L19.4751 13.8909C19.3959 13.8117 19.3266 13.7264 19.2672 13.6364C18.8929 13.0694 18.9118 12.3192 19.3241 11.7708C19.3697 11.7102 19.42 11.6521 19.4751 11.597C19.6444 11.4277 19.8419 11.3036 20.0524 11.2248C20.3341 11.1194 20.6393 11.095 20.9318 11.1516C21.2385 11.211 21.5314 11.3595 21.7689 11.597L33.5249 23.353C33.8292 23.6573 34 24.0698 34 24.4999C34 24.9302 33.8292 25.3427 33.5249 25.647L21.7689 37.403C21.1355 38.0364 20.1085 38.0364 19.4751 37.403C19.3959 37.3238 19.3266 37.2385 19.2672 37.1485C18.8515 36.519 18.9208 35.6634 19.4751 35.1091Z" fill="white"/>
</svg>
