<svg width="16" height="16" viewBox="0 0 16 16" fill="none" xmlns="http://www.w3.org/2000/svg">
<path d="M5.61122 6.66668L8.00177 9.05721L10.3923 6.66668C10.6526 6.40636 11.0747 6.40636 11.3351 6.66668C11.3676 6.69928 11.3961 6.73434 11.4205 6.77128C11.5914 7.03008 11.5629 7.38174 11.3351 7.60954L8.47317 10.4715C8.3481 10.5965 8.17857 10.6667 8.00177 10.6667C7.8249 10.6667 7.65537 10.5965 7.53037 10.4715L4.6684 7.60954C4.40806 7.34914 4.40806 6.92708 4.6684 6.66668C4.70095 6.63416 4.73602 6.60569 4.77299 6.58128C5.03176 6.41043 5.38341 6.4389 5.61122 6.66668Z" fill="currentColor"/>
</svg>
