<svg width="30" height="31" viewBox="0 0 30 31" fill="none" xmlns="http://www.w3.org/2000/svg">
<path d="M25.232 13.1441V9.01485C25.232 9.01485 23.122 9.02567 21.3403 7.33697C19.8429 5.91792 19.7183 3.25989 19.7183 3.25989H15.7267C15.7267 3.25989 15.7267 17.3501 15.7267 19.5958C15.7267 21.8405 13.8384 23.0027 12.4838 23.0027C11.463 23.0027 9.14095 22.1751 9.14095 19.5702C9.14095 16.8364 11.8103 16.1377 12.5085 16.1377C13.2068 16.1377 13.4817 16.2922 13.4817 16.2922V11.9337C13.4817 11.9337 12.8329 11.8697 12.3592 11.853C8.33046 11.7122 5 15.4518 5 19.5692C5 23.048 7.63031 27.2599 12.4343 27.2599C17.5513 27.2599 19.8934 22.8453 19.8934 19.5948C19.8934 17.2202 19.8934 11.4918 19.8934 11.4918C19.8934 11.4918 21.365 12.343 22.5627 12.7308C23.7603 13.1185 25.232 13.1441 25.232 13.1441Z" fill="currentColor"/>
</svg>
