<svg width="25" height="25" viewBox="0 0 25 25" fill="none" xmlns="http://www.w3.org/2000/svg">
<path fill-rule="evenodd" clip-rule="evenodd" d="M16.4053 7.5C16.4053 9.70914 14.6144 11.5 12.4053 11.5C10.1961 11.5 8.40527 9.70914 8.40527 7.5C8.40527 5.29086 10.1961 3.5 12.4053 3.5C14.6144 3.5 16.4053 5.29086 16.4053 7.5ZM14.4053 7.5C14.4053 8.60457 13.5099 9.5 12.4053 9.5C11.3007 9.5 10.4053 8.60457 10.4053 7.5C10.4053 6.39543 11.3007 5.5 12.4053 5.5C13.5099 5.5 14.4053 6.39543 14.4053 7.5Z" fill="currentColor"/>
<path fill-rule="evenodd" clip-rule="evenodd" d="M20.4053 17.6666C20.4053 17.2333 20.2695 16.8074 19.9868 16.479C18.1529 14.3488 15.4366 13 12.4053 13C9.37393 13 6.65762 14.3488 4.82374 16.479C4.54103 16.8074 4.40527 17.2333 4.40527 17.6666V19.5C4.40527 20.6046 5.3007 21.5 6.40527 21.5H18.4053C19.5099 21.5 20.4053 20.6046 20.4053 19.5V17.6666ZM18.4053 17.7083C16.9366 16.0445 14.794 15 12.4053 15C10.0166 15 7.87399 16.0445 6.40527 17.7083V19.5H18.4053V17.7083Z" fill="currentColor"/>
</svg>
