<svg width="24" height="24" viewBox="0 0 24 24" fill="none" xmlns="http://www.w3.org/2000/svg">
<g id="social/whatsapp">
<path id="Vector" d="M12 2C6.47727 2 2 6.47727 2 12C2 13.8477 2.5033 15.5771 3.37784 17.0621L2.09766 21.8562L7.12607 20.7314C8.56834 21.5382 10.23 22 12 22C17.5227 22 22 17.5227 22 12C22 6.47727 17.5227 2 12 2ZM12 3.81818C16.5186 3.81818 20.1818 7.48136 20.1818 12C20.1818 16.5186 16.5186 20.1818 12 20.1818C10.3041 20.1818 8.72895 19.6659 7.42259 18.7827L4.63228 19.4068L5.34251 16.7452C4.3866 15.4061 3.81818 13.7709 3.81818 12C3.81818 7.48136 7.48136 3.81818 12 3.81818ZM8.57848 7.33469C8.41166 7.33469 8.14349 7.39635 7.91531 7.64453C7.69121 7.89317 7.05149 8.49038 7.05149 9.71129C7.05149 10.9277 7.93504 12.1076 8.05913 12.2699C8.18322 12.4367 9.77297 15.0178 12.293 16.0101C14.3821 16.8328 14.8089 16.6699 15.2662 16.6271C15.7198 16.588 16.7311 16.0303 16.937 15.4526C17.1424 14.8744 17.1422 14.3786 17.0781 14.2745C17.0159 14.1736 16.8531 14.111 16.6049 13.9869C16.3568 13.8623 15.1392 13.2626 14.911 13.1808C14.686 13.0989 14.5193 13.056 14.3571 13.3042C14.1902 13.5523 13.7173 14.1109 13.5696 14.2736C13.4264 14.4404 13.2833 14.4599 13.0352 14.3358C12.787 14.2117 11.9889 13.9512 11.043 13.1062C10.3071 12.4512 9.81009 11.64 9.6669 11.3928C9.52327 11.145 9.65112 11.0099 9.77521 10.8858C9.88794 10.7776 10.024 10.5984 10.1481 10.4553C10.2681 10.308 10.3104 10.2075 10.3922 10.0407C10.4781 9.87839 10.4345 9.73063 10.3727 9.60653C10.3113 9.48199 9.83011 8.257 9.6092 7.76882C9.42374 7.35791 9.22985 7.34589 9.05167 7.3418C8.90758 7.33452 8.74075 7.33469 8.57848 7.33469Z" fill="currentColor"/>
</g>
</svg>
