<svg width="38" height="37" viewBox="0 0 38 37" fill="none" xmlns="http://www.w3.org/2000/svg">
<path d="M16.1378 23.1127V13.2452L24.7204 18.1403L16.1378 23.1127Z" fill="currentColor"/>
<path d="M12.6587 3.0835C4.24277 3.0835 3.58337 3.74212 3.58337 12.1589V24.8415C3.58337 33.2574 4.24277 33.9168 12.6587 33.9168H25.3414C33.7573 33.9168 34.4167 33.2582 34.4167 24.8415V12.1589C34.4167 3.74212 33.7581 3.0835 25.3414 3.0835H12.6587ZM10.6504 6.16683H27.3497C31.0443 6.16683 31.3334 6.45587 31.3334 10.1505V26.8499C31.3334 30.5445 31.0436 30.8335 27.3497 30.8335H10.6504C6.95575 30.8335 6.66671 30.5437 6.66671 26.8499V10.1505C6.66671 6.45587 6.95575 6.16683 10.6504 6.16683Z" fill="currentColor"/>
</svg>
