<svg width="118" height="46" viewBox="0 0 118 46" fill="none" xmlns="http://www.w3.org/2000/svg">
<g clip-path="url(#clip0_408_5344)">
<path d="M15.1264 7.71836C15.4494 7.06214 15.6131 6.41451 15.6131 5.76687C15.6131 4.34293 15.2211 3.15488 14.4416 2.19844C13.662 1.24199 12.4345 0.765917 10.759 0.765917H1.81763V17.7674H10.5911C12.3096 17.7674 13.5758 17.2785 14.3899 16.3006C15.2039 15.3227 15.6131 14.1433 15.6131 12.7665C15.6131 12.076 15.4494 11.4155 15.1264 10.7807C14.8034 10.1459 14.3511 9.63982 13.7697 9.26239C14.3511 8.88496 14.8034 8.36599 15.1264 7.70978M13.0202 14.9839C12.5422 15.5972 11.7324 15.9017 10.5911 15.9017H3.6955V10.2017H11.3965C12.2234 10.2017 12.8178 10.4805 13.1882 11.0337C13.5543 11.5913 13.7395 12.166 13.7395 12.7665C13.7395 13.6329 13.4983 14.3706 13.0202 14.9839ZM13.2011 7.48246C12.8437 8.04861 12.2622 8.33168 11.4611 8.33168H5.27187C4.40185 8.33168 3.69119 7.62829 3.69119 6.75763V2.63162H10.7547C11.8272 2.63162 12.5895 2.93614 13.0461 3.54947C13.5026 4.16279 13.7309 4.9005 13.7309 5.76687C13.7309 6.34588 13.55 6.91632 13.1968 7.48246" fill="#D8DEDF"/>
<path d="M32.1177 9.26668C32.8973 8.26735 33.2892 7.10074 33.2892 5.76687C33.2892 4.34293 32.8973 3.15488 32.1177 2.19844C31.3381 1.24199 30.1106 0.765917 28.4352 0.765917H19.498V17.7674H21.3716V12.3376C21.3716 11.4712 22.078 10.7635 22.9523 10.7635H27.2464L31.183 17.7632H33.2935L29.3267 10.7121C30.5542 10.562 31.4845 10.0773 32.122 9.26239M30.6964 7.98427C30.214 8.5976 29.4645 8.90212 28.4352 8.90212H21.3716V2.63162H28.4352C29.5291 2.63162 30.3001 2.94472 30.7437 3.56662C31.1917 4.18852 31.4113 4.92194 31.4113 5.76687C31.4113 6.6118 31.1701 7.37095 30.692 7.98427" fill="#D8DEDF"/>
<path d="M39.6162 0.765917H37.7427V17.7674H39.6162V0.765917Z" fill="#D8DEDF"/>
<path d="M57.7274 17.7674H59.6009V9.26668H52.6364V11.1324H56.8789C57.357 11.1324 57.7274 11.5441 57.6843 12.0159C57.6154 12.7665 57.4646 13.4098 57.2234 13.9502C56.8875 14.6965 56.3017 15.2498 55.4662 15.6187C54.6306 15.9875 53.4634 16.1677 51.9689 16.1677C50.6983 16.1677 49.6129 15.8889 48.7213 15.3356C47.8298 14.778 47.1493 14.0146 46.6798 13.0367C46.2103 12.0588 45.9648 10.9351 45.9433 9.66984V8.90212C45.9433 7.65831 46.1845 6.53889 46.6626 5.55242C47.1407 4.56167 47.8341 3.78536 48.7386 3.21922C49.6431 2.65307 50.7198 2.37 51.9689 2.37C53.2179 2.37 54.2387 2.6016 55.1001 3.0691C55.9572 3.5366 56.6118 4.16279 57.0598 4.95196C57.5077 5.74114 57.7274 6.63324 57.7274 7.63687V7.76983H59.6009V7.53822C59.6009 6.1829 59.2779 4.9777 58.6318 3.92261C57.9858 2.86752 57.0856 2.03546 55.9356 1.42213C54.7857 0.813096 53.4634 0.50429 51.9689 0.50429C50.4743 0.50429 49.1305 0.855986 47.9332 1.55509C46.7401 2.25419 45.7969 3.21493 45.1034 4.43729C44.41 5.65965 44.0654 7.05785 44.0654 8.6362V10.0044C44.0654 11.6042 44.41 13.0067 45.1034 14.2033C45.7969 15.4042 46.7401 16.3435 47.9332 17.0212C49.1262 17.6988 50.47 18.0376 51.9689 18.0376C53.4677 18.0376 54.5832 17.7331 55.5351 17.1198C56.0132 16.811 56.4654 16.455 56.853 16.0433C57.1718 15.7044 57.7403 15.9232 57.736 16.3864L57.7231 17.7674H57.7274Z" fill="#D8DEDF"/>
<path d="M75.0976 8.33597H65.3594V0.765917H63.4858V17.7674H65.3594V11.7714C65.3594 10.9051 66.0658 10.1974 66.9401 10.1974H76.6783V17.7632H78.5519V0.765917H76.6783V6.76191C76.6783 7.62829 75.972 8.33597 75.0976 8.33597Z" fill="#D8DEDF"/>
<path d="M81.6658 2.63162H87.7602V17.7674H89.6338V2.63162H95.7283V0.765917H81.6658V2.63162Z" fill="#D8DEDF"/>
<path d="M37.8374 35.1807C38.1604 34.5245 38.3241 33.8769 38.3241 33.2292C38.3241 31.8053 37.9322 30.6172 37.1526 29.6608C36.373 28.7043 35.1455 28.2283 33.4701 28.2283H24.533V45.2298H33.3064C35.0249 45.2298 36.2912 44.7409 37.1052 43.763C37.9192 42.7851 38.3284 41.6056 38.3284 40.2288C38.3284 39.5383 38.1647 38.8778 37.8417 38.243C37.5187 37.6083 37.0664 37.1022 36.485 36.7247C37.0664 36.3473 37.5187 35.8283 37.8417 35.1721M35.727 42.4462C35.2489 43.0596 34.4392 43.3641 33.3021 43.3641H27.9829C27.1129 43.3641 26.4022 42.6607 26.4022 41.79V37.6597H34.1032C34.9302 37.6597 35.5245 37.9385 35.8949 38.4918C36.261 39.0494 36.4462 39.6241 36.4462 40.2246C36.4462 41.0909 36.205 41.8286 35.727 42.442M35.9122 34.9491C35.5547 35.5153 34.9732 35.7983 34.1721 35.7983H26.4065V30.0983H33.4701C34.5425 30.0983 35.3049 30.4028 35.7614 31.0161C36.218 31.6294 36.4462 32.3671 36.4462 33.2335C36.4462 33.8125 36.2653 34.383 35.9122 34.9491Z" fill="#D8DEDF"/>
<path d="M54.8242 36.729C55.6038 35.7297 55.9957 34.5631 55.9957 33.2292C55.9957 31.8053 55.6038 30.6172 54.8242 29.6608C54.0446 28.7043 52.8171 28.2283 51.1417 28.2283H42.2046V45.2298H44.0782V39.7999C44.0782 38.9336 44.7845 38.2259 45.6588 38.2259H49.953L53.8896 45.2255H56L52.0333 38.1744C53.2608 38.0243 54.1911 37.5397 54.8285 36.7247M53.4029 35.4466C52.9205 36.06 52.1711 36.3645 51.1417 36.3645H44.0782V30.0983H51.1417C52.2357 30.0983 53.0066 30.4114 53.4503 31.0333C53.8982 31.6552 54.1179 32.3886 54.1179 33.2335C54.1179 34.0784 53.8767 34.8376 53.3986 35.4509" fill="#D8DEDF"/>
<path d="M80.335 28.2283H78.4614V45.2298H80.335V28.2283Z" fill="#D8DEDF"/>
<path d="M98.2135 41.9873C98.2135 42.6478 97.3392 42.888 96.999 42.3176L88.639 28.2283H85.0254V45.2298H86.8989V31.4836C86.8989 30.8231 87.7776 30.5829 88.1135 31.1534L96.4046 45.2255H100.087V28.224H98.2135V41.983V41.9873Z" fill="#D8DEDF"/>
<path d="M116.678 37.6126C115.795 36.9778 114.653 36.5403 113.245 36.2958L109.227 35.6311C108.245 35.4552 107.456 35.185 106.866 34.829C106.276 34.473 105.979 33.8854 105.979 33.062C105.979 32.1527 106.263 31.4664 106.832 31.0118C107.4 30.5572 108.081 30.2441 108.873 30.0768C109.666 29.9095 110.398 29.8281 111.066 29.8281C111.845 29.8281 112.608 29.9567 113.344 30.2098C114.081 30.4671 114.688 30.8746 115.17 31.445C115.648 32.0112 115.89 32.7746 115.89 33.7267V34.3615H117.763V33.7267C117.763 32.44 117.449 31.3635 116.824 30.51C116.2 29.6565 115.377 29.0174 114.365 28.5928C113.348 28.1725 112.237 27.9581 111.036 27.9581C109.05 27.9581 107.396 28.3741 106.082 29.2104C104.765 30.0425 104.106 31.3506 104.106 33.1263C104.106 34.0827 104.325 34.8547 104.76 35.4423C105.195 36.0299 105.785 36.4888 106.535 36.8105C107.284 37.1322 108.124 37.3724 109.063 37.5268L112.845 38.1615C113.758 38.2945 114.533 38.5347 115.17 38.8778C115.808 39.2209 116.126 39.8171 116.126 40.662C116.126 41.6614 115.7 42.4076 114.856 42.8966C114.007 43.3855 112.737 43.63 111.04 43.63C109.343 43.63 108.034 43.2526 107.172 42.4977C106.311 41.7428 105.884 40.6749 105.884 39.2981V39.0665H103.976V39.2681C103.976 40.379 104.218 41.4126 104.696 42.369C105.174 43.3255 105.936 44.0846 106.974 44.6508C108.012 45.2169 109.369 45.5 111.04 45.5C113.564 45.5 115.351 45.0497 116.415 44.149C117.475 43.2483 118.004 42.086 118.004 40.6663C118.004 39.2467 117.565 38.2516 116.682 37.6168" fill="#D8DEDF"/>
<path d="M58.5541 45.2169L65.5057 28.2454H68.4818L75.0975 45.2169H73.2239L71.5872 41.1252H62.129L60.4234 45.2169H58.5498H58.5541ZM64.1145 39.3925H69.6663C70.2994 39.3925 70.7344 38.7577 70.5018 38.1658L67.7927 31.3078C67.4955 30.5572 66.4317 30.5486 66.1216 31.2949L63.2789 38.153C63.0334 38.7449 63.4684 39.3925 64.1102 39.3925" fill="#D8DEDF"/>
<path d="M15.7852 37.2866C15.1392 36.669 15.1435 35.9227 15.7939 35.2965C16.4011 34.7132 16.6466 34.0055 16.4356 33.1906C16.2203 32.3628 15.6603 31.8525 14.8248 31.638C13.9117 31.4064 13.3518 30.8274 13.1106 29.9267C12.8091 28.7944 11.8831 28.1168 10.8106 28.2454C9.69508 28.3827 8.91982 29.2748 8.9069 30.4457C8.9069 30.6473 8.90259 32.0326 8.90259 32.0326C8.90259 32.0326 8.91551 40.5334 8.9069 40.5376C8.9112 41.5884 8.92412 42.3304 8.93704 42.4763C9.04041 43.5013 9.8889 44.3034 10.8623 44.3677C11.9218 44.4363 12.8306 43.7887 13.0847 42.7508C13.3216 41.7857 13.9203 41.211 14.8721 40.9408C16.582 40.4519 17.0601 38.509 15.7809 37.2823L15.7852 37.2866Z" fill="#CFFF22"/>
<path d="M0.727997 37.2866C1.37405 36.669 1.36975 35.9227 0.719383 35.2965C0.112091 34.7132 -0.133411 34.0055 0.0776343 33.1906C0.292986 32.3628 0.852902 31.8525 1.68847 31.638C2.60156 31.4064 3.16148 30.8274 3.40267 29.9267C3.70416 28.7944 4.63018 28.1168 5.70263 28.2454C6.81815 28.3827 7.59342 29.2748 7.60634 30.4457C7.60634 30.6473 7.61065 32.0326 7.61065 32.0326C7.61065 32.0326 7.58911 42.3304 7.57189 42.4763C7.46852 43.5013 6.62003 44.3034 5.64664 44.3677C4.58711 44.4363 3.67832 43.7887 3.42421 42.7508C3.18732 41.7857 2.58864 41.211 1.63678 40.9408C-0.0731122 40.4519 -0.551194 38.509 0.727997 37.2823V37.2866Z" fill="#CFFF22"/>
</g>
<defs>
<clipPath id="clip0_408_5344">
<rect width="118" height="45" fill="white" transform="translate(0 0.5)"/>
</clipPath>
</defs>
</svg>
